<?xml version="1.0" encoding="utf-8"?>
<!-- Generator: Adobe Illustrator 24.0.0, SVG Export Plug-In . SVG Version: 6.00 Build 0)  -->
<svg version="1.1"
	 id="Layer_1" xmlns:cc="http://creativecommons.org/ns#" xmlns:dc="http://purl.org/dc/elements/1.1/" xmlns:rdf="http://www.w3.org/1999/02/22-rdf-syntax-ns#" xmlns:svg="http://www.w3.org/2000/svg"
	 xmlns="http://www.w3.org/2000/svg" xmlns:xlink="http://www.w3.org/1999/xlink" x="0px" y="0px" viewBox="0 0 695 100"
	 style="enable-background:new 0 0 695 100;" xml:space="preserve">
<style type="text/css">
	.st0{fill:#00838F;}
</style>
<g>
	<g>
		<path class="st0" d="M119.81,52.25c0-6.6,0.08-13.44,0.23-17.29h-0.2c-1.57,6.14-7,20.99-11.01,32.34h-4.74
			c-3.04-9.37-8.65-26.05-10.26-32.41h-0.17c0.28,4.18,0.41,12.09,0.41,18.29V67.3h-5.01V31.18h7.99
			c3.86,10.87,8.52,24.84,9.73,29.58h0.08c0.86-3.72,6.41-18.98,10.42-29.58h7.75V67.3h-5.22V52.25z"/>
		<path class="st0" d="M153.62,61.32c0,2.43,0.21,5.24,0.36,5.98h-4.88c-0.21-0.58-0.36-1.86-0.42-3.29
			c-0.93,1.71-2.98,3.92-8.03,3.92c-6.27,0-8.94-4.09-8.94-8.13c0-5.93,4.68-8.65,12.53-8.65c1.74,0,3.4,0,4.37,0v-2.13
			c0-2.25-0.73-4.9-5.38-4.9c-4.17,0-4.9,2.02-5.35,4.06h-4.92c0.36-3.85,2.74-7.99,10.44-7.97c6.59,0.02,10.23,2.69,10.23,8.76
			V61.32z M148.64,54.56c-0.8,0-2.69,0-4.03,0c-5.11,0-7.71,1.44-7.71,4.94c0,2.59,1.75,4.52,4.89,4.52c6.04,0,6.85-4.09,6.85-8.64
			V54.56z"/>
		<path class="st0" d="M161.24,48.01c0-3.49-0.03-5.63-0.05-7.19h5.01c0.08,0.71,0.15,2.9,0.15,5.26c1.34-3.47,4.43-5.77,8.84-5.88
			v5.03c-5.41,0.1-8.84,2.67-8.84,9.47v12.6h-5.11V48.01z"/>
		<path class="st0" d="M179.96,29.16h5.11v5.87h-5.11V29.16z M179.96,40.82h5.11V67.3h-5.11V40.82z"/>
		<path class="st0" d="M192.67,47.49c0-2.29,0-4.64-0.05-6.67h4.96c0.13,0.76,0.2,3.36,0.2,4.16c1.03-2.16,3.18-4.78,8.21-4.78
			c5.03,0,8.83,3.14,8.83,10.11V67.3h-5.11V50.93c0-3.8-1.45-6.39-5.34-6.39c-4.63,0-6.6,3.4-6.6,8.59V67.3h-5.1V47.49z"/>
		<path class="st0" d="M225.67,55.03c0.03,4.98,2.53,8.69,6.86,8.69c3.97,0,5.23-1.98,6.05-3.85h5.13
			c-1.02,3.36-3.87,8.04-11.33,8.04c-8.4,0-11.87-6.72-11.87-13.56c0-7.96,4.02-14.16,12.16-14.16c8.65,0,11.5,6.8,11.5,12.63
			c0,0.82,0,1.48-0.08,2.2H225.67z M239.01,51.56c-0.05-4.11-2.06-7.43-6.4-7.43c-4.43,0-6.36,3.08-6.79,7.43H239.01z"/>
		<path class="st0" d="M263.77,31.18h13.95c7.15,0,12.04,4,12.04,10.64c0,7.19-5.23,10.9-12.31,10.9h-8.29V67.3h-5.39V31.18z
			 M269.16,48.27h7.91c4.7,0,7.19-2.22,7.19-6.33c0-4.27-2.94-6.32-7-6.32h-8.09V48.27z"/>
		<path class="st0" d="M295.81,48.01c0-3.49-0.03-5.63-0.05-7.19h5.01c0.08,0.71,0.15,2.9,0.15,5.26c1.34-3.47,4.43-5.77,8.84-5.88
			v5.03c-5.41,0.1-8.84,2.67-8.84,9.47v12.6h-5.11V48.01z"/>
		<path class="st0" d="M317.87,55.03c0.03,4.98,2.53,8.69,6.86,8.69c3.97,0,5.23-1.98,6.05-3.85h5.13
			c-1.02,3.36-3.87,8.04-11.33,8.04c-8.4,0-11.87-6.72-11.87-13.56c0-7.96,4.02-14.16,12.16-14.16c8.65,0,11.5,6.8,11.5,12.63
			c0,0.82,0,1.48-0.08,2.2H317.87z M331.21,51.56c-0.05-4.11-2.06-7.43-6.4-7.43c-4.43,0-6.36,3.08-6.79,7.43H331.21z"/>
		<path class="st0" d="M364.5,29.16v30.7c0,2.47,0,4.91,0.05,7.44h-4.91c-0.13-0.72-0.23-2.62-0.25-3.56
			c-1.3,2.63-3.9,4.19-8.17,4.19c-6.78,0-10.98-5.49-10.98-13.6c0-8.15,4.51-14.13,11.87-14.13c4.52,0,6.6,1.79,7.28,3.21V29.16
			H364.5z M345.53,54.17c0,6.16,2.84,9.48,6.89,9.48c5.97,0,7.18-4.5,7.18-9.91c0-5.62-1.12-9.28-6.85-9.28
			C348.23,44.46,345.53,48.03,345.53,54.17z"/>
		<path class="st0" d="M392.19,61.32c0,2.43,0.21,5.24,0.36,5.98h-4.88c-0.21-0.58-0.36-1.86-0.42-3.29
			c-0.93,1.71-2.98,3.92-8.03,3.92c-6.27,0-8.94-4.09-8.94-8.13c0-5.93,4.68-8.65,12.53-8.65c1.74,0,3.4,0,4.37,0v-2.13
			c0-2.25-0.73-4.9-5.38-4.9c-4.17,0-4.9,2.02-5.35,4.06h-4.92c0.36-3.85,2.74-7.99,10.44-7.97c6.59,0.02,10.23,2.69,10.23,8.76
			V61.32z M387.21,54.56c-0.8,0-2.69,0-4.03,0c-5.11,0-7.71,1.44-7.71,4.94c0,2.59,1.75,4.52,4.89,4.52c6.04,0,6.85-4.09,6.85-8.64
			V54.56z"/>
		<path class="st0" d="M396.57,40.82h4.48v-7.69h5.1v7.69h5.72v4.07h-5.72v15.03c0,2.46,0.62,3.68,2.98,3.68
			c0.59,0,1.49-0.03,2.18-0.19v3.75c-1.19,0.44-2.84,0.49-4.15,0.49c-4.32,0-6.12-2.26-6.12-6.7V44.9h-4.48V40.82z"/>
		<path class="st0" d="M439.93,54.01c0,7.7-4.45,13.91-12.6,13.91c-7.71,0-12.33-5.87-12.33-13.81c0-7.89,4.58-13.91,12.64-13.91
			C435.07,40.2,439.93,45.7,439.93,54.01z M420.23,54.06c0,5.67,2.76,9.67,7.28,9.67c4.6,0,7.18-3.82,7.18-9.64
			c0-5.88-2.58-9.69-7.29-9.69C422.75,44.39,420.23,48.1,420.23,54.06z"/>
		<path class="st0" d="M445.67,48.01c0-3.49-0.03-5.63-0.05-7.19h5.01c0.08,0.71,0.15,2.9,0.15,5.26c1.34-3.47,4.43-5.77,8.84-5.88
			v5.03c-5.41,0.1-8.84,2.67-8.84,9.47v12.6h-5.11V48.01z"/>
		<path class="st0" d="M467.23,59.65c0.72,2.74,2.78,4.34,6.2,4.34c3.66,0,5.08-1.54,5.08-3.79c0-2.33-1.2-3.38-6.01-4.55
			c-7.77-1.9-9.32-4.28-9.32-7.9c0-3.78,2.75-7.55,9.79-7.55c7.06,0,9.84,4.04,10.16,7.71h-4.92c-0.35-1.57-1.52-3.85-5.47-3.85
			c-3.46,0-4.5,1.65-4.5,3.28c0,1.85,1.04,2.76,5.78,3.89c8.18,1.93,9.72,4.68,9.72,8.6c0,4.59-3.61,8.09-10.49,8.09
			c-7.09,0-10.44-3.55-11.1-8.27H467.23z"/>
		<path class="st0" d="M533.02,67.3h-4.07c-0.26-0.77-0.41-2.31-0.48-4.64c-1.65,2.59-4.85,5.15-11.09,5.15
			c-10.43,0-16.02-7.91-16.02-18.19c0-10.82,6-18.96,17-18.96c8.56,0,13.88,4.68,14.88,11.08h-5.36c-1.13-3.73-3.85-6.68-9.62-6.68
			c-8.2,0-11.3,6.6-11.3,14.31c0,7.21,3.18,13.99,11.15,13.99c7.82,0,9.69-5.24,9.69-10.8V52.2h-9.74v-4.54h14.98V67.3z"/>
		<path class="st0" d="M540.57,48.01c0-3.49-0.03-5.63-0.05-7.19h5.01c0.08,0.71,0.15,2.9,0.15,5.26c1.34-3.47,4.43-5.77,8.84-5.88
			v5.03c-5.41,0.1-8.84,2.67-8.84,9.47v12.6h-5.11V48.01z"/>
		<path class="st0" d="M582.41,54.01c0,7.7-4.45,13.91-12.6,13.91c-7.71,0-12.33-5.87-12.33-13.81c0-7.89,4.58-13.91,12.64-13.91
			C577.55,40.2,582.41,45.7,582.41,54.01z M562.71,54.06c0,5.67,2.76,9.67,7.28,9.67c4.6,0,7.18-3.82,7.18-9.64
			c0-5.88-2.58-9.69-7.29-9.69C565.23,44.39,562.71,48.1,562.71,54.06z"/>
		<path class="st0" d="M609.79,59.59c0,2.57,0.03,5.99,0.05,7.71h-4.98c-0.1-0.7-0.16-2.27-0.18-3.79
			c-1.35,2.88-3.86,4.42-7.88,4.42c-4.64,0-8.76-2.42-8.76-9.72V40.82h5.08v16.31c0,3.37,1.05,6.42,5.21,6.42
			c4.57,0,6.35-2.52,6.35-8.87V40.82h5.11V59.59z"/>
		<path class="st0" d="M622.45,64.21v13.45h-5.08V47.27c0-2.16,0-4.37-0.05-6.44h4.96c0.1,0.85,0.17,2.45,0.17,3.99
			c1.38-2.53,4-4.62,8.47-4.62c6.09,0,10.57,5.1,10.57,13.19c0,9.43-5.11,14.54-11.52,14.54C625.79,67.92,623.61,66.2,622.45,64.21z
			 M636.25,53.58c0-5.46-2.44-9.09-6.76-9.09c-5.23,0-7.26,3.31-7.26,9.54c0,6.02,1.7,9.65,6.92,9.65
			C633.8,63.68,636.25,59.88,636.25,53.58z"/>
	</g>
</g>
</svg>
